<svg id="Ebene_2" data-name="Ebene 2" xmlns="http://www.w3.org/2000/svg" viewBox="0 0 184.28 158.14"><defs><style>.cls-1{fill:#fffadb;}.cls-2{fill:#fff;}.cls-3{fill:#1d1d1b;}</style></defs><path class="cls-1" d="M175.56,68.31c-38.5-50.4-102-49.16-145-9.27-15,12.17-48.18,75.32,5.64,100.68,7.2,2.6,11.64,1.51,25.77.39a546.9,546.9,0,0,1,63.63-.79c26.44.93,31.3,3.6,40.66-1.21C205.39,135.74,189.39,83.53,175.56,68.31Z" transform="translate(-6.56 -29.75)"/><path class="cls-2" d="M134.88,105.35c2.66-3.6-44.72-29.73-45.9-29.73-12.82,0-34.2,16.72-34.06,36.18,0,6,1.8,15.37,5.4,19.8,2.54,3.15,6.66,4.88,7.65,9.66a12.4,12.4,0,0,1-.81,6.84c-.58,1.8-3.74,17.82-.79,29.4,1.8,7.2,7.31,10.65,11.66,9.27,7.92-2.52,8.14-3.6,8.79-12.6,1.06-14.64,21.72-5.87,25.84-17.59,2.56-7.2-2.53-2.82-2.32-16.88C110.43,128.38,128.56,114,134.88,105.35Z" transform="translate(-6.56 -29.75)"/><path class="cls-3" d="M76,187.88a8.57,8.57,0,0,1-4.19-1.13,14.18,14.18,0,0,1-6.43-9c-3.07-12.11.35-28.44.83-29.9v-.27a11.32,11.32,0,0,0,.69-6.12,11.63,11.63,0,0,0-4.54-6.39,22.41,22.41,0,0,1-2.77-3c-3.6-4.37-5.4-13.71-5.53-20.28,0-8.66,4-17.57,11.5-25.11s16.42-12,23.4-12c2.2,0,43.73,23.52,46.66,29.3a1.67,1.67,0,0,1,0,1.8h0a107.52,107.52,0,0,1-8.08,9.11c-7.2,7.61-16.2,17.1-16.36,24.62-.11,7.2,1.2,9.35,2.07,10.8s1.49,2.76.21,6.41c-2.1,5.94-7.94,7-13.57,8.05C93.64,166,88.2,167,87.68,174.1c-.65,9.14-1,10.8-9.4,13.42A7.11,7.11,0,0,1,76,187.88ZM88.8,76.5c-6.3,0-15.21,4.61-22,11.45-7.2,7.2-11,15.66-11,23.85,0,6.33,2,15.24,5.13,19.17a22.78,22.78,0,0,0,2.72,2.66A11.58,11.58,0,0,1,68,148l-.09.25c-.45,1.35-3.72,17.39-.79,28.89a12.46,12.46,0,0,0,5.54,8,6.33,6.33,0,0,0,5,.65c7.49-2.38,7.52-3.1,8.15-11.83s7.58-9.79,13.72-10.93c5.4-1,10.44-1.92,12.19-6.87,1.06-3,.72-3.6,0-4.88-1-1.62-2.45-4-2.33-11.74.13-8.24,9-17.58,16.85-25.84a115.33,115.33,0,0,0,7.87-8.81C133,100.66,91.86,77.4,88.8,76.5Z" transform="translate(-6.56 -29.75)"/><rect class="cls-3" x="104.48" y="83.36" width="1" height="26.73" transform="translate(-39.01 105.6) rotate(-58.35)"/><path class="cls-3" d="M89.31,141.34a19.63,19.63,0,0,1-.43-9.92c2.25-9.68,11.68-14.07,15-15.32L83.89,103.76l.52-.85,21.75,13.46-1,.33c-1.31.42-12.83,4.39-15.27,14.94a18.5,18.5,0,0,0,.4,9.4Z" transform="translate(-6.56 -29.75)"/></svg>